<mxfile host="app.diagrams.net" modified="2021-09-20T09:52:43.733Z" agent="5.0 (Macintosh; Intel Mac OS X 10_15_5) AppleWebKit/537.36 (KHTML, like Gecko) Chrome/95.0.4638.10 Safari/537.36" etag="Iba_ificiAe2OoTSL19I" version="15.0.2" type="github">
  <diagram id="Un2dL43cCqqY8p0n4aIN" name="Page-1">
    <mxGraphModel dx="1298" dy="834" grid="0" gridSize="10" guides="1" tooltips="1" connect="1" arrows="1" fold="1" page="1" pageScale="1" pageWidth="1654" pageHeight="2336" math="0" shadow="0">
      <root>
        <mxCell id="0" />
        <mxCell id="1" parent="0" />
        <mxCell id="ShXNQLswpiT20pvlI4xM-1" value="" style="rounded=0;whiteSpace=wrap;html=1;" vertex="1" parent="1">
          <mxGeometry x="442.5" y="258" width="399.5" height="463" as="geometry" />
        </mxCell>
        <mxCell id="ShXNQLswpiT20pvlI4xM-2" value="" style="rounded=1;whiteSpace=wrap;html=1;" vertex="1" parent="1">
          <mxGeometry x="462.5" y="278" width="357.5" height="60" as="geometry" />
        </mxCell>
        <mxCell id="ShXNQLswpiT20pvlI4xM-14" value="" style="group" vertex="1" connectable="0" parent="1">
          <mxGeometry x="562" y="289" width="100" height="40" as="geometry" />
        </mxCell>
        <mxCell id="l2Vb87SfteknsquiNWt0-1" value="" style="rounded=0;whiteSpace=wrap;html=1;" parent="ShXNQLswpiT20pvlI4xM-14" vertex="1">
          <mxGeometry width="100" height="40" as="geometry" />
        </mxCell>
        <mxCell id="ShXNQLswpiT20pvlI4xM-13" value="" style="group" vertex="1" connectable="0" parent="ShXNQLswpiT20pvlI4xM-14">
          <mxGeometry x="10" y="10" width="70" height="20" as="geometry" />
        </mxCell>
        <mxCell id="ShXNQLswpiT20pvlI4xM-4" value="" style="endArrow=classic;html=1;exitX=1;exitY=1.1;exitDx=0;exitDy=0;exitPerimeter=0;" edge="1" parent="ShXNQLswpiT20pvlI4xM-13" source="ShXNQLswpiT20pvlI4xM-6">
          <mxGeometry width="50" height="50" relative="1" as="geometry">
            <mxPoint x="30" y="30" as="sourcePoint" />
            <mxPoint x="30" as="targetPoint" />
          </mxGeometry>
        </mxCell>
        <mxCell id="ShXNQLswpiT20pvlI4xM-6" value="&lt;font style=&quot;font-size: 18px&quot;&gt;A&amp;nbsp;&lt;/font&gt;" style="text;html=1;resizable=0;autosize=1;align=center;verticalAlign=middle;points=[];fillColor=none;strokeColor=none;rounded=0;" vertex="1" parent="ShXNQLswpiT20pvlI4xM-13">
          <mxGeometry width="30" height="20" as="geometry" />
        </mxCell>
        <mxCell id="ShXNQLswpiT20pvlI4xM-11" value="" style="endArrow=classic;html=1;exitX=1;exitY=1.1;exitDx=0;exitDy=0;exitPerimeter=0;entryX=1;entryY=1.1;entryDx=0;entryDy=0;entryPerimeter=0;" edge="1" parent="ShXNQLswpiT20pvlI4xM-13" target="ShXNQLswpiT20pvlI4xM-12">
          <mxGeometry width="50" height="50" relative="1" as="geometry">
            <mxPoint x="70" as="sourcePoint" />
            <mxPoint x="70" y="30" as="targetPoint" />
          </mxGeometry>
        </mxCell>
        <mxCell id="ShXNQLswpiT20pvlI4xM-12" value="&lt;font style=&quot;font-size: 18px&quot;&gt;A&amp;nbsp;&lt;/font&gt;" style="text;html=1;resizable=0;autosize=1;align=center;verticalAlign=middle;points=[];fillColor=none;strokeColor=none;rounded=0;" vertex="1" parent="ShXNQLswpiT20pvlI4xM-13">
          <mxGeometry x="40" width="30" height="20" as="geometry" />
        </mxCell>
        <mxCell id="ShXNQLswpiT20pvlI4xM-23" value="" style="group" vertex="1" connectable="0" parent="1">
          <mxGeometry x="70" y="60" width="210" height="160" as="geometry" />
        </mxCell>
        <mxCell id="ShXNQLswpiT20pvlI4xM-16" value="" style="rounded=1;whiteSpace=wrap;html=1;" vertex="1" parent="ShXNQLswpiT20pvlI4xM-23">
          <mxGeometry x="10" y="40" width="140" height="70" as="geometry" />
        </mxCell>
        <mxCell id="ShXNQLswpiT20pvlI4xM-17" value="" style="rounded=1;whiteSpace=wrap;html=1;" vertex="1" parent="ShXNQLswpiT20pvlI4xM-23">
          <mxGeometry x="30" y="40" width="180" height="100" as="geometry" />
        </mxCell>
        <mxCell id="ShXNQLswpiT20pvlI4xM-20" value="" style="rounded=0;whiteSpace=wrap;html=1;fillColor=none;" vertex="1" parent="ShXNQLswpiT20pvlI4xM-23">
          <mxGeometry y="20" width="150" height="140" as="geometry" />
        </mxCell>
        <mxCell id="ShXNQLswpiT20pvlI4xM-21" value="&lt;font style=&quot;font-size: 14px&quot;&gt;viewport&lt;br&gt;&lt;/font&gt;" style="text;html=1;resizable=0;autosize=1;align=center;verticalAlign=middle;points=[];fillColor=none;strokeColor=none;rounded=0;" vertex="1" parent="ShXNQLswpiT20pvlI4xM-23">
          <mxGeometry width="70" height="20" as="geometry" />
        </mxCell>
        <mxCell id="ShXNQLswpiT20pvlI4xM-22" value="transform: scale(1.x)" style="text;html=1;resizable=0;autosize=1;align=center;verticalAlign=middle;points=[];fillColor=none;strokeColor=none;rounded=0;" vertex="1" parent="ShXNQLswpiT20pvlI4xM-23">
          <mxGeometry x="30" y="50" width="120" height="20" as="geometry" />
        </mxCell>
        <mxCell id="ShXNQLswpiT20pvlI4xM-24" value="viewport" style="text;html=1;align=center;verticalAlign=middle;resizable=0;points=[];autosize=1;strokeColor=none;" vertex="1" parent="1">
          <mxGeometry x="442.5" y="238" width="60" height="20" as="geometry" />
        </mxCell>
        <mxCell id="ShXNQLswpiT20pvlI4xM-25" value="toolbar" style="text;html=1;align=center;verticalAlign=middle;resizable=0;points=[];autosize=1;strokeColor=none;" vertex="1" parent="1">
          <mxGeometry x="462.5" y="278" width="50" height="20" as="geometry" />
        </mxCell>
        <mxCell id="ShXNQLswpiT20pvlI4xM-29" value="" style="rounded=1;whiteSpace=wrap;html=1;fillColor=none;arcSize=10;" vertex="1" parent="1">
          <mxGeometry x="462.5" y="358" width="357.5" height="341" as="geometry" />
        </mxCell>
        <mxCell id="ShXNQLswpiT20pvlI4xM-30" value="iframe loads the main web" style="text;html=1;align=center;verticalAlign=middle;resizable=0;points=[];autosize=1;strokeColor=none;" vertex="1" parent="1">
          <mxGeometry x="462.5" y="368" width="160" height="20" as="geometry" />
        </mxCell>
        <mxCell id="ShXNQLswpiT20pvlI4xM-34" value="" style="edgeStyle=orthogonalEdgeStyle;rounded=0;orthogonalLoop=1;jettySize=auto;html=1;exitX=1;exitY=0.5;exitDx=0;exitDy=0;" edge="1" parent="1" source="l2Vb87SfteknsquiNWt0-1">
          <mxGeometry relative="1" as="geometry">
            <mxPoint x="862.5" y="368" as="targetPoint" />
          </mxGeometry>
        </mxCell>
        <mxCell id="ShXNQLswpiT20pvlI4xM-35" value="trigger" style="edgeLabel;html=1;align=center;verticalAlign=middle;resizable=0;points=[];" vertex="1" connectable="0" parent="ShXNQLswpiT20pvlI4xM-34">
          <mxGeometry x="-0.248" y="3" relative="1" as="geometry">
            <mxPoint as="offset" />
          </mxGeometry>
        </mxCell>
        <mxCell id="ShXNQLswpiT20pvlI4xM-45" value="&lt;span style=&quot;text-align: left&quot;&gt;&amp;nbsp; &amp;nbsp; setFontUp/setFontDown&lt;/span&gt;&lt;br style=&quot;text-align: left&quot;&gt;&lt;span style=&quot;text-align: left&quot;&gt;&amp;nbsp; &amp;nbsp; &amp;nbsp; &amp;nbsp; ChangeObjectFontSize&lt;/span&gt;&lt;br style=&quot;text-align: left&quot;&gt;&lt;span style=&quot;text-align: left&quot;&gt;&amp;nbsp; &amp;nbsp; &amp;nbsp; &amp;nbsp; &amp;nbsp; &amp;nbsp; if a or label&lt;/span&gt;&lt;br style=&quot;text-align: left&quot;&gt;&lt;span style=&quot;text-align: left&quot;&gt;&amp;nbsp; &amp;nbsp; &amp;nbsp; &amp;nbsp; &amp;nbsp; &amp;nbsp; &amp;nbsp; &amp;nbsp; style.fontSize = xx;&lt;/span&gt;&lt;br style=&quot;text-align: left&quot;&gt;&lt;span style=&quot;text-align: left&quot;&gt;&lt;/span&gt;&lt;span style=&quot;text-align: left&quot;&gt;&lt;/span&gt;&lt;span style=&quot;text-align: left&quot;&gt;&lt;span&gt;	&lt;/span&gt;&lt;span&gt;	&lt;/span&gt;style.lineHeight = xx;&lt;/span&gt;" style="text;html=1;align=center;verticalAlign=middle;resizable=0;points=[];autosize=1;strokeColor=none;" vertex="1" parent="1">
          <mxGeometry x="97" y="671" width="164" height="74" as="geometry" />
        </mxCell>
        <mxCell id="ShXNQLswpiT20pvlI4xM-47" value="&lt;span style=&quot;text-align: left&quot;&gt;&amp;nbsp; &amp;nbsp; setFontUp/setFontDown&lt;/span&gt;&lt;br style=&quot;text-align: left&quot;&gt;&lt;span style=&quot;text-align: left&quot;&gt;&amp;nbsp; &amp;nbsp; &amp;nbsp; &amp;nbsp; ChangeObjectFontSize&lt;/span&gt;&lt;br style=&quot;text-align: left&quot;&gt;&lt;span style=&quot;text-align: left&quot;&gt;&amp;nbsp; &amp;nbsp; &amp;nbsp; &amp;nbsp; &amp;nbsp; &amp;nbsp; if a or label&lt;/span&gt;&lt;br style=&quot;text-align: left&quot;&gt;&lt;span style=&quot;text-align: left&quot;&gt;&amp;nbsp; &amp;nbsp; &amp;nbsp; &amp;nbsp; &amp;nbsp; &amp;nbsp; &amp;nbsp; &amp;nbsp; style.fontSize = xx;&lt;/span&gt;&lt;br style=&quot;text-align: left&quot;&gt;&lt;span style=&quot;text-align: left&quot;&gt;&lt;/span&gt;&lt;span style=&quot;text-align: left&quot;&gt;&lt;/span&gt;&lt;span style=&quot;text-align: left&quot;&gt;&lt;span&gt;	&lt;/span&gt;&lt;span&gt;	&lt;/span&gt;style.lineHeight = xx;&lt;/span&gt;" style="shape=note;whiteSpace=wrap;html=1;backgroundOutline=1;darkOpacity=0.05;fillColor=none;" vertex="1" parent="1">
          <mxGeometry x="993" y="258" width="147" height="200" as="geometry" />
        </mxCell>
        <mxCell id="ShXNQLswpiT20pvlI4xM-48" value="aaa&lt;br&gt;bbbbbb&lt;br&gt;cccccccccc" style="text;html=1;align=left;verticalAlign=middle;resizable=0;points=[];autosize=1;strokeColor=none;" vertex="1" parent="1">
          <mxGeometry x="480.5" y="411" width="70" height="46" as="geometry" />
        </mxCell>
        <mxCell id="ShXNQLswpiT20pvlI4xM-51" value="" style="shape=card;whiteSpace=wrap;html=1;fillColor=none;" vertex="1" parent="1">
          <mxGeometry x="78" y="639" width="220" height="130" as="geometry" />
        </mxCell>
        <mxCell id="ShXNQLswpiT20pvlI4xM-52" value="&lt;font style=&quot;font-size: 18px&quot;&gt;aaa&lt;br&gt;bbbbbb&lt;br&gt;&lt;font&gt;cccccccccc&lt;/font&gt;&lt;/font&gt;" style="text;html=1;align=left;verticalAlign=middle;resizable=0;points=[];autosize=1;strokeColor=none;" vertex="1" parent="1">
          <mxGeometry x="657" y="405" width="100" height="52" as="geometry" />
        </mxCell>
        <mxCell id="ShXNQLswpiT20pvlI4xM-53" value="" style="shape=flexArrow;endArrow=classic;html=1;" edge="1" parent="1">
          <mxGeometry width="50" height="50" relative="1" as="geometry">
            <mxPoint x="566.5" y="441.5" as="sourcePoint" />
            <mxPoint x="638.5" y="441.5" as="targetPoint" />
          </mxGeometry>
        </mxCell>
        <mxCell id="ShXNQLswpiT20pvlI4xM-57" value="" style="group" vertex="1" connectable="0" parent="1">
          <mxGeometry x="475" y="517" width="135" height="157" as="geometry" />
        </mxCell>
        <mxCell id="ShXNQLswpiT20pvlI4xM-50" value="" style="shape=card;whiteSpace=wrap;html=1;fillColor=none;flipH=1;rounded=1;" vertex="1" parent="ShXNQLswpiT20pvlI4xM-57">
          <mxGeometry width="135" height="157" as="geometry" />
        </mxCell>
        <mxCell id="ShXNQLswpiT20pvlI4xM-31" value="@media xxx&amp;nbsp;&lt;span style=&quot;color: rgb(32 , 33 , 36) ; font-family: &amp;#34;menlo&amp;#34; , monospace ; font-size: 11px ; background-color: rgb(255 , 255 , 255)&quot;&gt;html&lt;/span&gt;&amp;nbsp; {&lt;br&gt;&amp;nbsp; font-size: *px;&lt;br&gt;}" style="text;html=1;align=left;verticalAlign=middle;resizable=0;points=[];autosize=1;strokeColor=none;rotation=0;" vertex="1" parent="ShXNQLswpiT20pvlI4xM-57">
          <mxGeometry x="13" y="26" width="119" height="46" as="geometry" />
        </mxCell>
        <mxCell id="ShXNQLswpiT20pvlI4xM-32" value="a/label/div {&lt;br&gt;&lt;div&gt;&lt;span&gt;&amp;nbsp; margin: *rem;&lt;/span&gt;&lt;/div&gt;&lt;div&gt;&lt;span&gt;&amp;nbsp; padding: *rem;&lt;br&gt;&lt;/span&gt;&lt;/div&gt;&lt;div&gt;&lt;span&gt;}&lt;/span&gt;&lt;/div&gt;" style="text;html=1;align=left;verticalAlign=middle;resizable=0;points=[];autosize=1;strokeColor=none;" vertex="1" parent="ShXNQLswpiT20pvlI4xM-57">
          <mxGeometry x="13" y="85" width="95" height="60" as="geometry" />
        </mxCell>
        <mxCell id="ShXNQLswpiT20pvlI4xM-60" value="&lt;span&gt;setFontUp/setFontDown&lt;br&gt;&lt;/span&gt;&lt;span&gt;ChangeObjectFontSize&lt;/span&gt;&lt;br&gt;&lt;div&gt;&lt;span&gt;&amp;nbsp; &amp;nbsp; &amp;nbsp; &amp;nbsp; &amp;nbsp; &amp;nbsp; if a or label&lt;/span&gt;&lt;/div&gt;&lt;span&gt;&amp;nbsp; &amp;nbsp; &amp;nbsp; &amp;nbsp; &amp;nbsp; &amp;nbsp; &amp;nbsp; &amp;nbsp; style.fontSize = xx;&lt;/span&gt;&lt;br&gt;&lt;span&gt;&lt;/span&gt;&lt;span&gt;&lt;/span&gt;&lt;span&gt;style.lineHeight = xx;&lt;/span&gt;" style="shape=card;whiteSpace=wrap;html=1;fillColor=none;flipH=0;rounded=1;sketch=0;align=left;" vertex="1" parent="1">
          <mxGeometry x="959" y="485" width="190" height="156" as="geometry" />
        </mxCell>
      </root>
    </mxGraphModel>
  </diagram>
</mxfile>
